<?xml version="1.0" standalone="no"?>
<!DOCTYPE svg PUBLIC "-//W3C//DTD SVG 20010904//EN"
 "http://www.w3.org/TR/2001/REC-SVG-20010904/DTD/svg10.dtd">
<svg version="1.0" xmlns="http://www.w3.org/2000/svg"
 width="500.000000pt" height="500.000000pt" viewBox="0 0 500.000000 500.000000"
 preserveAspectRatio="xMidYMid meet">
<metadata>
Created by potrace 1.11, written by Peter Selinger 2001-2013
</metadata>
<g transform="translate(0.000000,500.000000) scale(0.100000,-0.100000)"
fill="#000000" stroke="none">
<path d="M1058 3635 c-2 -3 -25 -7 -50 -9 -195 -20 -459 -140 -617 -281 -259
-230 -392 -528 -386 -862 6 -302 107 -542 323 -767 141 -147 398 -290 573
-321 18 -3 35 -8 39 -10 41 -25 361 -26 485 -1 168 34 350 114 478 210 70 52
116 94 323 292 93 89 185 176 205 195 20 19 112 107 205 196 93 88 185 176
204 194 19 18 89 84 155 147 66 64 156 150 200 192 81 78 183 170 225 204 29
23 145 80 185 91 17 5 35 9 40 11 76 21 213 25 298 10 248 -46 460 -244 518
-486 19 -80 16 -232 -6 -305 -85 -287 -349 -476 -655 -470 -170 3 -311 57
-429 162 l-26 23 -50 -49 c-27 -26 -111 -107 -185 -179 l-135 -131 35 -31 c87
-75 236 -165 365 -220 43 -18 124 -41 215 -59 120 -24 345 -23 465 3 381 83
673 308 834 641 80 166 111 312 106 505 -2 69 -6 139 -10 155 -20 93 -27 119
-54 193 -121 327 -395 589 -732 698 -144 47 -239 61 -399 58 -149 -2 -172 -4
-277 -30 -141 -34 -264 -89 -389 -173 -97 -66 -104 -72 -339 -296 -201 -192
-257 -245 -282 -268 -22 -19 8 -45 -370 323 -71 69 -146 141 -168 160 -143
126 -351 226 -554 267 -69 14 -353 28 -363 18z m267 -510 c66 -12 166 -55 235
-101 83 -55 570 -530 554 -541 -12 -8 -275 -258 -403 -382 -172 -167 -309
-230 -511 -236 -309 -10 -583 195 -659 490 -22 89 -20 225 6 316 66 226 260
401 508 454 62 13 199 13 270 0z"/>
</g>
</svg>
