<?xml version="1.0" encoding="UTF-8" standalone="no"?>
<!DOCTYPE svg PUBLIC "-//W3C//DTD SVG 1.1//EN" "http://www.w3.org/Graphics/SVG/1.1/DTD/svg11.dtd">
<svg width="100%" height="100%" viewBox="0 0 5906 2693" version="1.1" xmlns="http://www.w3.org/2000/svg" xmlns:xlink="http://www.w3.org/1999/xlink" xml:space="preserve" style="fill-rule:evenodd;clip-rule:evenodd;stroke-linejoin:round;stroke-miterlimit:1.41421;">
    <g id="Symbol" transform="matrix(3.79213,0,0,3.64635,-460.16,-1935.26)">
        <path d="M1487.07,794.617C1451.02,733.926 1384.8,693.214 1309.15,693.214C1254.31,693.214 1201.71,715 1162.93,753.78L1048.04,638.893C1117.29,569.643 1211.22,530.739 1309.15,530.739C1438.8,530.739 1552.93,597.7 1618.82,698.896L1618.84,698.886C1621.63,703.184 1624.33,707.534 1626.93,711.932C1658.96,765.9 1677.64,828.708 1678.39,895.788L1678.39,895.819L1678.39,895.865L1678.4,896.422L1678.4,896.646C1678.4,896.93 1678.4,897.214 1678.4,897.498L1678.4,897.613L1678.41,897.902L1678.41,898.327L1678.41,898.609L1678.41,898.806L1678.41,898.954C1678.41,899.303 1678.41,899.651 1678.41,900C1678.41,1016.39 1624.45,1120.27 1540.2,1187.97L1539.68,1188.39L1539.42,1188.6C1537.89,1189.82 1536.36,1191.02 1534.82,1192.21L1534.44,1192.51L1534.19,1192.7C1522.58,1201.65 1510.41,1209.92 1497.77,1217.45C1496.29,1218.34 1494.8,1219.21 1493.31,1220.07C1442.07,1249.63 1383.08,1267.25 1320.17,1269.1L1319.86,1269.11C1316.3,1269.21 1312.73,1269.26 1309.15,1269.26C1309.15,1269.26 1308.06,1269.26 1308.06,1269.26L1308.03,1269.26L1308,1269.26L1307.65,1269.26L1306.96,1269.26L1306.91,1269.25L1306.86,1269.25L1306.45,1269.25L1305.87,1269.25L1305.79,1269.25L1305.71,1269.25L1305.3,1269.24L1304.77,1269.24L1304.67,1269.23L1304.56,1269.23L1304.16,1269.23L1303.68,1269.22L1303.55,1269.22L1303.42,1269.22L1303.03,1269.21L1302.59,1269.2L1302.43,1269.2L1302.27,1269.2L1301.89,1269.19L1301.49,1269.18L1301.31,1269.18L1301.13,1269.17L1300.77,1269.17L1300.4,1269.16L1300.19,1269.15L1299.98,1269.15L1299.64,1269.14L1299.31,1269.13L1299.08,1269.12L1298.84,1269.12L1298.52,1269.11L1298.21,1269.1L1297.96,1269.09L1297.69,1269.08L1297.4,1269.07L1297.12,1269.07L1296.85,1269.06L1296.55,1269.05L1296.28,1269.04L1296.03,1269.03L1295.74,1269.02L1295.41,1269.01L1295.15,1269L1294.94,1268.99L1294.63,1268.98L1294.27,1268.96L1294.04,1268.95L1293.85,1268.94L1293.52,1268.93L1293.12,1268.91L1292.92,1268.9L1292.76,1268.9L1292.42,1268.88L1291.98,1268.86L1291.8,1268.85L1291.67,1268.85L1291.32,1268.83L1290.84,1268.81L1290.68,1268.8L1290.58,1268.79L1290.23,1268.78L1289.7,1268.75L1289.56,1268.74L1289.49,1268.74L1289.15,1268.72L1288.56,1268.69L1288.45,1268.68L1288.4,1268.68L1288.1,1268.66L1287.42,1268.62L1287.33,1268.62L1287.32,1268.62L1287.14,1268.61C1285.43,1268.5 1283.73,1268.39 1282.04,1268.27L1281.88,1268.25L1281.86,1268.25L1281.73,1268.24L1281,1268.19L1280.8,1268.17L1280.76,1268.17L1280.59,1268.16L1279.93,1268.1L1279.71,1268.09L1279.65,1268.08L1279.46,1268.07L1278.85,1268.02L1278.63,1268L1278.55,1267.99L1278.32,1267.97L1277.76,1267.92L1277.55,1267.91L1277.45,1267.9L1277.19,1267.88L1276.66,1267.83L1276.46,1267.81L1276.35,1267.8L1276.05,1267.78L1275.56,1267.73L1275.38,1267.71L1275.26,1267.7L1274.92,1267.67L1274.46,1267.63L1274.3,1267.61L1274.16,1267.6L1273.79,1267.57L1273.36,1267.52L1273.21,1267.51L1273.07,1267.5L1272.65,1267.45L1272.26,1267.41L1272.13,1267.4L1271.99,1267.39L1271.52,1267.34L1271.16,1267.3L1271.05,1267.29L1270.9,1267.28L1270.39,1267.22L1270.06,1267.19L1269.97,1267.18L1269.83,1267.16L1269.26,1267.1L1268.95,1267.07L1268.89,1267.06L1268.76,1267.05L1268.13,1266.98L1267.85,1266.95L1267.82,1266.94L1267.71,1266.93L1267,1266.85L1266.75,1266.82L1266.74,1266.82L1266.68,1266.81C1262.39,1266.32 1258.12,1265.74 1253.86,1265.1L1253.84,1265.1L1253.84,1265.1L1253.5,1265.05L1252.81,1264.94L1252.77,1264.93L1252.75,1264.93L1252.38,1264.87L1251.75,1264.77L1251.7,1264.77L1251.67,1264.76L1251.26,1264.7L1250.68,1264.6L1250.63,1264.6L1250.6,1264.59L1250.14,1264.52L1249.61,1264.43L1249.57,1264.42L1249.53,1264.42L1249.02,1264.34L1248.53,1264.25L1248.5,1264.25L1248.46,1264.24L1247.91,1264.15L1247.46,1264.07L1247.43,1264.07L1247.39,1264.06L1246.79,1263.96L1246.38,1263.89L1246.36,1263.88L1246.34,1263.88L1245.67,1263.77L1245.3,1263.7L1245.3,1263.7L1245.3,1263.7C1239.62,1262.7 1233.98,1261.58 1228.37,1260.32L1228.35,1260.31L1228.34,1260.31L1227.93,1260.22L1227.33,1260.08L1227.3,1260.08L1227.27,1260.07L1226.83,1259.97L1226.28,1259.84L1226.24,1259.83L1226.21,1259.83L1225.73,1259.72L1225.23,1259.6L1225.19,1259.59L1225.15,1259.58L1224.63,1259.46L1224.17,1259.35L1224.14,1259.34L1224.1,1259.33L1223.53,1259.2L1223.12,1259.1L1223.09,1259.09L1223.05,1259.08L1222.43,1258.93L1222.06,1258.84L1222.04,1258.84L1222.01,1258.83L1221.34,1258.67L1221,1258.59L1221,1258.59L1220.99,1258.58C1216.8,1257.55 1212.64,1256.45 1208.5,1255.28L1208.49,1255.28L1208.49,1255.28L1208.25,1255.21L1207.52,1255L1207.45,1254.98L1207.43,1254.97L1207.16,1254.9L1206.52,1254.71L1206.42,1254.68L1206.37,1254.67L1206.08,1254.59L1205.5,1254.41L1205.38,1254.38L1205.32,1254.36L1205,1254.27L1204.47,1254.11L1204.35,1254.08L1204.27,1254.05L1203.92,1253.95L1203.44,1253.81L1203.32,1253.77L1203.22,1253.74L1202.84,1253.63L1202.41,1253.5L1202.29,1253.46L1202.17,1253.42L1201.76,1253.3L1201.37,1253.18L1201.25,1253.15L1201.12,1253.11L1200.68,1252.97L1200.33,1252.86L1200.22,1252.83L1200.08,1252.78L1199.6,1252.64L1199.29,1252.54L1199.2,1252.51L1199.04,1252.46L1198.53,1252.3L1198.25,1252.21L1198.17,1252.19L1198,1252.13L1197.45,1251.96L1197.21,1251.88L1197.14,1251.86L1196.97,1251.81L1196.38,1251.62L1196.17,1251.55L1196.12,1251.54L1195.95,1251.48L1195.31,1251.27L1195.12,1251.21L1195.09,1251.2L1194.94,1251.15L1194.24,1250.92L1194.09,1250.88L1194.07,1250.87L1193.96,1250.83C1191.99,1250.19 1190.02,1249.52 1188.07,1248.84L1187.95,1248.8L1187.93,1248.8L1187.83,1248.76L1187.16,1248.53L1186.93,1248.45L1186.89,1248.43L1186.77,1248.39L1186.19,1248.19L1185.91,1248.09L1185.85,1248.07L1185.71,1248.02L1185.19,1247.83L1184.9,1247.73L1184.81,1247.7L1184.65,1247.64L1184.18,1247.47L1183.89,1247.37L1183.78,1247.33L1183.59,1247.26L1183.16,1247.1L1182.88,1247L1182.74,1246.95L1182.53,1246.87L1182.14,1246.73L1181.87,1246.63L1181.7,1246.57L1181.47,1246.49L1181.12,1246.36L1180.86,1246.26L1180.67,1246.19L1180.41,1246.09L1180.1,1245.98L1179.85,1245.88L1179.63,1245.8L1179.36,1245.7L1179.07,1245.59L1178.84,1245.5L1178.6,1245.41L1178.31,1245.3L1178.05,1245.2L1177.83,1245.12L1177.56,1245.02L1177.26,1244.9L1177.03,1244.81L1176.83,1244.74L1176.53,1244.62L1176.2,1244.5L1176,1244.42L1175.82,1244.35L1175.5,1244.22L1175.15,1244.09L1174.98,1244.02L1174.82,1243.96L1174.46,1243.82L1174.11,1243.68L1173.96,1243.62L1173.82,1243.57L1173.43,1243.41L1173.06,1243.27L1172.93,1243.22L1172.82,1243.17L1172.39,1243L1172.01,1242.85L1171.91,1242.81L1171.82,1242.77L1171.34,1242.58L1170.97,1242.43L1170.89,1242.4L1170.82,1242.37L1170.28,1242.15L1169.92,1242.01L1169.88,1241.99L1169.82,1241.97L1169.18,1241.7L1168.88,1241.58L1168.86,1241.57L1168.82,1241.56L1167.86,1241.16L1167.84,1241.15L1167.84,1241.15C1167.5,1241.01 1167.15,1240.87 1166.81,1240.72L1166.8,1240.72L1166.65,1240.66L1165.84,1240.32L1165.79,1240.3L1165.76,1240.29L1165.5,1240.17L1164.85,1239.9L1164.78,1239.87L1164.73,1239.85L1164.44,1239.72L1163.86,1239.48L1163.76,1239.43L1163.69,1239.4L1163.4,1239.28L1162.87,1239.05L1162.74,1239L1162.66,1238.96L1162.37,1238.83L1161.88,1238.62L1161.73,1238.56L1161.62,1238.51L1161.35,1238.39L1160.9,1238.19L1160.72,1238.11L1160.59,1238.06L1160.33,1237.94L1159.91,1237.76L1159.7,1237.67L1159.56,1237.61L1159.31,1237.49L1158.93,1237.32L1158.69,1237.22L1158.53,1237.15L1158.3,1237.04L1157.94,1236.88L1157.68,1236.77L1157.51,1236.69L1157.29,1236.59L1156.96,1236.44L1156.67,1236.31L1156.48,1236.22L1156.29,1236.13L1155.98,1236L1155.66,1235.85L1155.46,1235.76L1155.28,1235.67L1155,1235.55L1154.65,1235.39L1154.43,1235.29L1154.28,1235.21L1154.03,1235.1L1153.64,1234.92L1153.41,1234.81L1153.27,1234.75L1153.05,1234.64L1152.63,1234.45L1152.39,1234.34L1152.27,1234.28L1152.07,1234.19L1151.62,1233.97L1151.37,1233.86L1151.27,1233.81L1151.1,1233.73L1150.6,1233.49L1150.36,1233.37L1150.28,1233.34L1150.13,1233.27L1149.57,1233L1149.34,1232.89L1149.28,1232.86L1149.16,1232.8L1148.53,1232.5L1148.32,1232.4L1148.29,1232.38L1148.19,1232.33L1147.46,1231.98L1147.31,1231.91L1147.29,1231.9C1145.95,1231.24 1144.62,1230.58 1143.29,1229.91L1143.27,1229.91L1143.13,1229.84L1142.39,1229.46L1142.3,1229.42L1142.27,1229.4L1142.05,1229.29L1141.43,1228.98L1141.32,1228.92L1141.26,1228.89L1141.02,1228.76L1140.47,1228.49L1140.34,1228.41L1140.26,1228.38L1140.01,1228.24L1139.52,1227.99L1139.36,1227.91L1139.26,1227.86L1139,1227.72L1138.56,1227.49L1138.38,1227.4L1138.26,1227.34L1138.01,1227.21L1137.6,1227L1137.4,1226.89L1137.26,1226.82L1137.02,1226.69L1136.65,1226.49L1136.43,1226.37L1136.27,1226.29L1136.03,1226.16L1135.7,1225.99L1135.45,1225.86L1135.27,1225.76L1135.05,1225.64L1134.75,1225.48L1134.48,1225.34L1134.28,1225.23L1134.07,1225.12L1133.8,1224.97L1133.51,1224.81L1133.28,1224.69L1133.09,1224.59L1132.85,1224.46L1132.54,1224.29L1132.29,1224.15L1132.12,1224.06L1131.9,1223.94L1131.57,1223.76L1131.31,1223.61L1131.15,1223.53L1130.96,1223.42L1130.6,1223.23L1130.32,1223.07L1130.18,1222.99L1130.01,1222.9L1129.64,1222.69L1129.33,1222.52L1129.21,1222.45L1129.07,1222.38L1128.67,1222.15L1128.35,1221.97L1128.24,1221.91L1128.13,1221.85L1127.71,1221.61L1127.37,1221.42L1127.28,1221.37L1127.19,1221.32L1126.76,1221.07L1126.38,1220.86L1126.31,1220.82L1126.25,1220.78L1125.81,1220.53L1125.4,1220.3L1125.35,1220.27L1125.32,1220.25L1124.86,1219.99L1124.43,1219.74L1124.39,1219.72L1124.38,1219.71L1123.97,1219.47L1123.45,1219.17L1122.69,1218.73L1122.52,1218.62L1122.51,1218.62L1122.48,1218.6L1121.9,1218.26L1121.58,1218.08L1121.56,1218.07L1121.5,1218.03L1120.97,1217.72L1120.65,1217.53L1120.62,1217.51L1120.53,1217.45L1120.03,1217.16L1119.73,1216.98L1119.67,1216.94L1119.56,1216.88L1119.09,1216.59L1118.8,1216.42L1118.73,1216.38L1118.6,1216.3L1118.14,1216.02L1117.88,1215.86L1117.79,1215.81L1117.63,1215.71L1117.2,1215.45L1116.95,1215.3L1116.85,1215.24L1116.67,1215.12L1116.26,1214.88L1116.03,1214.74L1115.92,1214.67L1115.7,1214.54L1115.32,1214.3L1115.11,1214.17L1114.99,1214.09L1114.74,1213.94L1114.38,1213.72L1114.19,1213.6L1114.06,1213.52L1113.78,1213.35L1113.44,1213.13L1113.28,1213.03L1113.13,1212.94L1112.83,1212.75L1112.5,1212.55L1112.36,1212.45L1112.21,1212.36L1111.87,1212.14L1111.57,1211.95L1111.45,1211.88L1111.29,1211.78L1110.91,1211.54L1110.64,1211.36L1110.54,1211.3L1110.38,1211.2L1109.96,1210.93L1109.7,1210.77L1109.62,1210.71L1109.48,1210.62L1109.01,1210.32L1108.77,1210.17L1108.71,1210.13L1108.58,1210.04L1108.06,1209.71L1107.85,1209.57L1107.81,1209.54L1107.7,1209.47L1107.12,1209.09L1106.92,1208.96L1106.9,1208.95L1106.84,1208.91C1089.66,1197.66 1073.36,1184.93 1058.13,1170.82L1058.12,1170.81L1058.12,1170.8L1057.94,1170.64L1057.4,1170.14L1057.32,1170.06L1057.32,1170.06C1054.18,1167.13 1051.09,1164.15 1048.04,1161.11L1162.93,1046.22C1164.65,1047.94 1166.4,1049.62 1168.17,1051.28L1168.57,1051.65L1168.58,1051.66C1177.11,1059.57 1186.24,1066.69 1195.86,1072.99L1195.9,1073.02L1196.34,1073.3L1196.42,1073.36L1196.83,1073.62L1196.94,1073.69L1197.34,1073.95L1197.46,1074.03L1197.84,1074.27L1197.98,1074.36L1198.35,1074.6L1198.51,1074.69L1198.87,1074.92L1199.03,1075.03L1199.38,1075.25L1199.55,1075.35L1199.9,1075.57L1200.08,1075.68L1200.42,1075.89L1200.61,1076.01L1200.94,1076.21L1201.13,1076.33L1201.46,1076.54L1201.66,1076.65L1201.99,1076.85L1202.19,1076.97L1202.52,1077.17L1202.72,1077.29L1203.04,1077.49L1203.25,1077.61L1203.57,1077.8L1203.77,1077.92L1204.1,1078.12L1204.29,1078.23L1204.63,1078.43L1204.73,1078.49L1205.16,1078.73L1205.45,1078.9L1205.69,1079.04L1205.95,1079.19L1206.22,1079.35L1206.48,1079.5L1206.76,1079.66L1207.01,1079.8L1207.3,1079.96L1207.55,1080.1L1207.84,1080.27L1208.09,1080.41L1208.38,1080.57L1208.62,1080.71L1208.92,1080.87L1209.16,1081.01L1209.47,1081.17L1209.7,1081.3L1210.01,1081.47L1210.25,1081.6L1210.56,1081.77L1210.79,1081.89L1211.11,1082.07L1211.33,1082.19L1211.65,1082.36L1211.88,1082.48L1212.2,1082.65L1212.42,1082.77L1212.76,1082.94L1212.97,1083.06L1213.31,1083.24L1213.52,1083.34L1213.87,1083.53L1214.07,1083.63L1214.43,1083.82L1214.62,1083.91L1215,1084.11L1215.17,1084.19L1215.58,1084.4L1215.72,1084.47L1216.18,1084.71L1216.27,1084.75C1217.01,1085.13 1217.76,1085.5 1218.51,1085.86L1218.61,1085.91L1219.07,1086.13L1219.21,1086.2L1219.62,1086.4L1219.79,1086.48L1220.18,1086.67L1220.36,1086.75L1220.74,1086.93L1220.93,1087.02L1221.3,1087.2L1221.5,1087.29L1221.86,1087.46L1222.07,1087.56L1222.42,1087.72L1222.63,1087.82L1222.98,1087.98L1223.2,1088.08L1223.55,1088.24L1223.76,1088.33L1224.11,1088.49L1224.33,1088.59L1224.68,1088.74L1224.89,1088.84L1225.24,1089L1225.46,1089.09L1225.81,1089.25L1226.03,1089.34L1226.38,1089.5L1226.6,1089.59L1226.95,1089.75L1227.16,1089.84L1227.53,1090L1227.73,1090.08L1228.11,1090.25L1228.3,1090.33L1228.71,1090.5L1228.87,1090.57L1229.35,1090.77L1229.44,1090.81L1230.02,1091.05L1230.59,1091.28L1230.77,1091.36L1231.16,1091.51L1231.39,1091.61L1231.73,1091.75L1231.98,1091.85L1232.3,1091.97L1232.56,1092.08L1232.87,1092.2L1233.15,1092.31L1233.44,1092.43L1233.73,1092.54L1234.02,1092.65L1234.3,1092.77L1234.59,1092.88L1234.88,1092.99L1235.16,1093.1L1235.46,1093.21L1235.73,1093.31L1236.04,1093.43L1236.31,1093.53L1236.62,1093.65L1236.88,1093.75L1237.2,1093.87L1237.45,1093.96L1237.78,1094.08L1238.03,1094.17L1238.36,1094.29L1238.6,1094.38L1238.94,1094.5L1239.17,1094.58L1239.52,1094.71L1239.73,1094.79L1240.1,1094.92L1240.29,1094.98L1240.69,1095.12L1240.84,1095.18L1241.27,1095.33L1241.34,1095.35C1242.44,1095.73 1243.54,1096.11 1244.64,1096.47L1244.71,1096.49L1245.19,1096.65L1245.3,1096.68L1245.76,1096.83L1245.88,1096.87L1246.33,1097.01L1246.46,1097.06L1246.91,1097.2L1247.05,1097.24L1247.49,1097.38L1247.63,1097.42L1248.07,1097.56L1248.21,1097.6L1248.65,1097.74L1248.79,1097.78L1249.24,1097.92L1249.37,1097.96L1249.83,1098.09L1249.95,1098.13L1250.42,1098.27L1250.53,1098.3L1251.01,1098.44L1251.11,1098.47L1251.6,1098.62L1251.67,1098.64L1252.19,1098.79L1252.24,1098.8L1252.78,1098.95L1252.79,1098.96C1255.11,1099.61 1257.44,1100.23 1259.78,1100.81L1259.79,1100.81L1260.36,1100.95L1260.38,1100.95L1260.94,1101.09L1260.97,1101.1L1261.52,1101.23L1261.56,1101.24L1262.11,1101.37L1262.15,1101.38L1262.7,1101.5L1262.74,1101.51L1263.3,1101.64L1263.33,1101.65L1263.89,1101.77L1263.91,1101.78C1267.05,1102.48 1270.21,1103.11 1273.39,1103.67L1273.39,1103.67L1273.98,1103.77L1274,1103.78L1274.57,1103.87L1274.6,1103.88L1275.16,1103.97L1275.21,1103.98L1275.76,1104.07L1275.81,1104.08L1276.36,1104.17L1276.41,1104.18L1276.96,1104.27L1277.01,1104.27L1277.57,1104.36L1277.6,1104.37L1278.17,1104.45L1278.19,1104.46C1280.57,1104.82 1282.97,1105.14 1285.37,1105.41L1285.41,1105.42L1285.94,1105.48L1286.03,1105.49L1286.53,1105.55L1286.64,1105.56L1287.13,1105.61L1287.26,1105.62L1287.73,1105.67L1287.88,1105.69L1288.34,1105.74L1288.49,1105.75L1288.95,1105.8L1289.11,1105.81L1289.56,1105.86L1289.73,1105.87L1290.17,1105.91L1290.34,1105.93L1290.79,1105.97L1290.96,1105.99L1291.4,1106.02L1291.57,1106.04L1292.02,1106.08L1292.18,1106.09L1292.63,1106.13L1292.79,1106.14L1293.25,1106.17L1293.39,1106.18L1293.87,1106.22L1293.97,1106.23C1294.92,1106.3 1295.87,1106.36 1296.82,1106.42L1296.93,1106.42L1297.36,1106.45L1297.56,1106.46L1297.95,1106.48L1298.18,1106.5L1298.55,1106.52L1298.81,1106.53L1299.16,1106.55L1299.43,1106.56L1299.78,1106.57L1300.06,1106.59L1300.4,1106.6L1300.69,1106.61L1301.02,1106.63L1301.31,1106.64L1301.64,1106.65L1301.94,1106.66L1302.26,1106.67L1302.57,1106.68L1302.89,1106.69L1303.2,1106.7L1303.51,1106.71L1303.83,1106.72L1304.14,1106.73L1304.46,1106.73L1304.76,1106.74L1305.09,1106.75L1305.39,1106.75L1305.72,1106.76L1306.01,1106.76L1306.36,1106.77L1306.64,1106.77L1306.99,1106.78L1307.27,1106.78L1307.64,1106.78L1307.89,1106.78L1308.31,1106.78L1308.52,1106.79L1309.15,1106.79C1313.16,1106.79 1317.15,1106.67 1321.11,1106.45C1325.87,1106.17 1330.58,1105.74 1335.25,1105.15C1335.97,1105.06 1336.69,1104.97 1337.41,1104.87L1337.45,1104.86C1338.08,1104.78 1338.71,1104.69 1339.34,1104.59C1339.34,1104.59 1339.39,1104.59 1339.39,1104.59C1340.8,1104.38 1342.2,1104.16 1343.61,1103.92C1344.35,1103.8 1345.08,1103.67 1345.82,1103.54L1346.37,1103.44L1346.73,1103.37L1347.01,1103.32L1347.64,1103.2L1348.28,1103.08C1348.49,1103.04 1348.7,1103 1348.91,1102.96L1349.54,1102.84L1349.94,1102.76L1350.17,1102.71L1350.67,1102.61L1350.8,1102.58L1351.08,1102.52L1351.43,1102.45L1351.61,1102.41C1355.78,1101.54 1359.91,1100.55 1363.98,1099.43C1377.88,1095.61 1391.2,1090.37 1403.76,1083.89C1409.7,1080.83 1415.46,1077.49 1421.05,1073.88L1421.1,1073.85L1421.38,1073.67L1421.62,1073.51L1421.88,1073.34C1422.19,1073.14 1422.49,1072.94 1422.8,1072.74C1426.05,1070.6 1429.23,1068.37 1432.35,1066.05C1439.88,1060.45 1447.02,1054.35 1453.71,1047.8C1454.11,1047.41 1454.51,1047.02 1454.9,1046.63L1455.34,1046.19C1456.77,1044.77 1458.17,1043.32 1459.56,1041.85C1459.75,1041.64 1459.95,1041.44 1460.14,1041.23C1473.18,1027.3 1484.31,1011.57 1493.13,994.447C1493.32,994.08 1493.5,993.712 1493.69,993.344L1493.87,992.99L1494.15,992.43L1494.31,992.112C1496.29,988.144 1498.14,984.104 1499.87,979.996C1500.05,979.57 1500.23,979.143 1500.4,978.715L1500.64,978.132L1500.87,977.572C1501.03,977.175 1501.19,976.777 1501.35,976.378L1501.59,975.792C1501.92,974.948 1502.25,974.102 1502.57,973.253C1502.73,972.815 1502.9,972.376 1503.06,971.937C1503.61,970.462 1504.14,968.979 1504.66,967.489L1504.86,966.893L1505.01,966.465C1505.13,966.087 1505.26,965.709 1505.39,965.33C1506.31,962.573 1507.17,959.791 1507.97,956.984C1509.56,951.433 1510.93,945.787 1512.05,940.056C1512.69,936.794 1513.26,933.505 1513.75,930.19L1513.84,929.547C1514.15,927.402 1514.42,925.247 1514.66,923.082C1515.04,919.655 1515.34,916.203 1515.55,912.728C1515.81,908.518 1515.94,904.274 1515.94,900L1515.94,899.149L1515.93,898.958L1515.93,898.137L1515.93,898.123C1515.6,861.643 1505.62,825.939 1487.07,794.617ZM631.877,1051.23L782.772,901.726L636.943,753.655C598.175,714.953 545.633,693.214 490.849,693.214C376.72,693.214 284.062,785.872 284.062,900C284.062,1014.13 376.72,1106.79 490.849,1106.79C543.195,1106.79 593.593,1086.93 631.877,1051.23L742.684,1170.06C674.321,1233.81 584.324,1269.26 490.849,1269.26C287.048,1269.26 121.587,1103.8 121.587,900C121.587,696.199 287.048,530.739 490.849,530.739C588.783,530.739 682.706,569.643 751.956,638.893L751.637,639.211L751.958,638.893L898.17,787.389L1048.04,638.893L1162.93,753.78L742.684,1170.06L631.877,1051.23Z" style="fill:rgb(28,165,184);"/>
    </g>
</svg>
